<svg width="24" height="24" viewBox="0 0 24 24" fill="none" xmlns="http://www.w3.org/2000/svg">
<g id="Group 3252">
<rect id="Rectangle 2102" opacity="0.22" width="24" height="24" rx="4" fill="white"/>
<path id="Union" d="M18 4.46875H18.5V4.46869L18 4.46875ZM17.7946 19.93L18.0725 20.3457L18.0726 20.3456L17.7946 19.93ZM17.3732 19.9505L17.6112 19.5108L17.6111 19.5107L17.3732 19.9505ZM12 17.0428L12.2379 16.6031L12 16.4743L11.762 16.6031L12 17.0428ZM6.62682 19.9505L6.86479 20.3902H6.86479L6.62682 19.9505ZM6.20541 19.93L5.92734 20.3455L5.92739 20.3456L6.20541 19.93ZM17.5669 3.5H6.43311V4.5H17.5669V3.5ZM18.5 4.46869C18.4999 3.97167 18.1186 3.5 17.5669 3.5V4.5C17.5349 4.5 17.5136 4.48502 17.5059 4.47663C17.4987 4.4689 17.5 4.46487 17.5 4.46881L18.5 4.46869ZM18.5 19.5312V4.46875H17.5V19.5312H18.5ZM18.0726 20.3456C18.3483 20.1612 18.5 19.8491 18.5 19.5312H17.5C17.5 19.533 17.4995 19.5328 17.5007 19.5305C17.5018 19.5283 17.5061 19.5214 17.5166 19.5144L18.0726 20.3456ZM17.5669 20.5C17.7458 20.5 17.9214 20.4467 18.0725 20.3457L17.5167 19.5143C17.5287 19.5063 17.5462 19.5 17.5669 19.5V20.5ZM17.1351 20.3902C17.2693 20.4628 17.4174 20.5 17.5669 20.5V19.5C17.5839 19.5 17.5993 19.5044 17.6112 19.5108L17.1351 20.3902ZM11.762 17.4826L17.1352 20.3902L17.6111 19.5107L12.2379 16.6031L11.762 17.4826ZM6.86479 20.3902L12.2379 17.4826L11.762 16.6031L6.38886 19.5107L6.86479 20.3902ZM5.92739 20.3456C6.20816 20.5334 6.56617 20.5518 6.86479 20.3902L6.38886 19.5107C6.40193 19.5037 6.41918 19.4992 6.43792 19.5001C6.45662 19.501 6.47244 19.5071 6.48343 19.5144L5.92739 20.3456ZM5.5 19.5312C5.5 19.8492 5.65178 20.1611 5.92734 20.3455L6.48347 19.5144C6.49394 19.5214 6.49815 19.5283 6.49931 19.5305C6.50047 19.5328 6.5 19.5329 6.5 19.5312H5.5ZM5.5 4.46875V19.5312H6.5V4.46875H5.5ZM6.43311 3.5C5.88128 3.5 5.5 3.9717 5.5 4.46875H6.5C6.5 4.46482 6.50126 4.46886 6.4941 4.47661C6.48632 4.48503 6.46501 4.5 6.43311 4.5V3.5Z" fill="#AAAAAA"/>
</g>
</svg>
