<svg width="16" height="16" viewBox="0 0 16 16" fill="none" xmlns="http://www.w3.org/2000/svg">
<g id="Group 3392">
<path id="Vector" d="M8.6406 0.667731C8.6406 0.49092 8.71084 0.321351 8.83587 0.196327C8.96089 0.0713025 9.13046 0.00106465 9.30727 0.00106465C11.0748 0.00300571 12.7693 0.706008 14.0192 1.95583C15.269 3.20565 15.972 4.90022 15.9739 6.66773C15.9739 6.84454 15.9037 7.01411 15.7787 7.13914C15.6536 7.26416 15.4841 7.3344 15.3073 7.3344C15.1305 7.3344 14.9609 7.26416 14.8359 7.13914C14.7108 7.01411 14.6406 6.84454 14.6406 6.66773C14.639 5.25373 14.0766 3.8981 13.0767 2.89825C12.0769 1.8984 10.7213 1.33599 9.30727 1.3344C9.13046 1.3344 8.96089 1.26416 8.83587 1.13914C8.71084 1.01411 8.6406 0.844542 8.6406 0.667731ZM9.30727 4.00107C10.0145 4.00107 10.6928 4.28202 11.1929 4.78211C11.693 5.28221 11.9739 5.96049 11.9739 6.66773C11.9739 6.84454 12.0442 7.01411 12.1692 7.13914C12.2942 7.26416 12.4638 7.3344 12.6406 7.3344C12.8174 7.3344 12.987 7.26416 13.112 7.13914C13.237 7.01411 13.3073 6.84454 13.3073 6.66773C13.3062 5.60719 12.8844 4.59039 12.1345 3.84047C11.3846 3.09056 10.3678 2.66879 9.30727 2.66773C9.13046 2.66773 8.96089 2.73797 8.83587 2.86299C8.71084 2.98802 8.6406 3.15759 8.6406 3.3344C8.6406 3.51121 8.71084 3.68078 8.83587 3.8058C8.96089 3.93083 9.13046 4.00107 9.30727 4.00107ZM15.3693 11.1604C15.7556 11.5478 15.9726 12.0726 15.9726 12.6197C15.9726 13.1669 15.7556 13.6917 15.3693 14.0791L14.7626 14.7784C9.3026 20.0057 -3.98405 6.7224 1.16261 1.24506L1.92928 0.578398C2.31713 0.202849 2.83723 -0.00490264 3.37708 8.7873e-05C3.91693 0.00507838 4.43311 0.22241 4.81394 0.605065C4.83461 0.625731 6.06994 2.2304 6.06994 2.2304C6.43649 2.61548 6.64054 3.12702 6.63967 3.65867C6.63881 4.19032 6.43308 4.70118 6.06527 5.08507L5.29328 6.05573C5.72051 7.09381 6.34865 8.03723 7.14161 8.8318C7.93458 9.62636 8.87673 10.2564 9.91394 10.6857L10.8906 9.90907C11.2745 9.54154 11.7853 9.33606 12.3168 9.33532C12.8483 9.33457 13.3596 9.53862 13.7446 9.90507C13.7446 9.90507 15.3486 11.1397 15.3693 11.1604ZM14.4519 12.1297C14.4519 12.1297 12.8566 10.9024 12.8359 10.8817C12.6986 10.7456 12.513 10.6691 12.3196 10.6691C12.1262 10.6691 11.9406 10.7456 11.8033 10.8817C11.7853 10.9004 10.4406 11.9717 10.4406 11.9717C10.35 12.0439 10.2421 12.0911 10.1277 12.1089C10.0133 12.1267 9.89616 12.1143 9.78794 12.0731C8.44425 11.5728 7.22376 10.7896 6.20916 9.77645C5.19456 8.76335 4.40954 7.54402 3.90728 6.20107C3.86274 6.09137 3.84822 5.97179 3.86521 5.85462C3.8822 5.73746 3.93009 5.62693 4.00394 5.5344C4.00394 5.5344 5.07528 4.18906 5.09328 4.17173C5.22945 4.03439 5.30586 3.84881 5.30586 3.6554C5.30586 3.46199 5.22945 3.27641 5.09328 3.13906C5.07261 3.11906 3.84528 1.5224 3.84528 1.5224C3.70588 1.3974 3.52395 1.33046 3.33678 1.3353C3.14961 1.34013 2.97137 1.41637 2.83861 1.5484L2.07195 2.21507C-1.68938 6.73773 9.8246 17.6131 13.7879 13.8677L14.3953 13.1677C14.5376 13.0359 14.6231 12.8539 14.6336 12.6602C14.6442 12.4665 14.5791 12.2763 14.4519 12.1297Z" fill="#AAAAAA"/>
</g>
</svg>
