<svg width="16" height="16" viewBox="0 0 16 16" fill="none" xmlns="http://www.w3.org/2000/svg">
<g id="Group 3109">
<path id="Vector" d="M11.0215 5.88079L5.90242 1.29079C5.69346 1.10454 5.4108 1 5.11616 1C4.82152 1 4.53885 1.10454 4.32989 1.29079C4.22536 1.38376 4.14239 1.49436 4.08577 1.61622C4.02915 1.73808 4 1.86878 4 2.00079C4 2.1328 4.02915 2.26351 4.08577 2.38537C4.14239 2.50723 4.22536 2.61783 4.32989 2.71079L9.46013 7.29079C9.56466 7.38376 9.64763 7.49436 9.70425 7.61622C9.76087 7.73808 9.79003 7.86878 9.79003 8.00079C9.79003 8.13281 9.76087 8.26351 9.70425 8.38537C9.64763 8.50723 9.56466 8.61783 9.46013 8.71079L4.32989 13.2908C4.11989 13.4778 4.00132 13.7319 4.00027 13.9973C3.99922 14.2626 4.11579 14.5175 4.32432 14.7058C4.53285 14.8941 4.81626 15.0004 5.11222 15.0014C5.40817 15.0023 5.69241 14.8978 5.90242 14.7108L11.0215 10.1208C11.6481 9.55829 12 8.7958 12 8.00079C12 7.20579 11.6481 6.44329 11.0215 5.88079Z" fill="#DDDDDD"/>
</g>
</svg>
