<svg width="28" height="28" viewBox="0 0 28 28" fill="none" xmlns="http://www.w3.org/2000/svg">
<g id="Group 2127">
<rect id="Rectangle 2125" width="28" height="28" fill="white"/>
<g id="Group 1588">
<path id="Vector" d="M16.8248 23.3309C16.8248 25.9082 14.8002 27.9975 12.3029 27.9975C9.8056 27.9975 7.78125 25.9082 7.78125 23.3309C7.78125 20.7535 9.8056 18.6641 12.3029 18.6641C14.8002 18.6641 16.8248 20.7535 16.8248 23.3309Z" fill="#FFC700"/>
<path id="Vector_2" d="M20.2263 13.9105C16.3942 13.3456 13.4348 9.94476 13.4348 5.83594C13.4348 4.66913 13.6766 3.56213 14.1051 2.55746C13.5263 2.41754 12.925 2.33594 12.3043 2.33594C7.94095 2.33594 4.3913 5.99915 4.3913 10.5025V13.7552C4.3913 16.064 3.41121 18.2434 1.69176 19.7437C1.25211 20.131 1 20.6968 1 21.2941C1 22.4201 1.88736 23.3359 2.97819 23.3359H21.6303C22.7214 23.3359 23.6087 22.4201 23.6087 21.2941C23.6087 20.6968 23.3566 20.131 22.9056 19.7332C21.2371 18.2761 20.2694 16.1608 20.2263 13.9105Z" fill="#FFE600"/>
<path id="Vector_3" d="M26.9998 5.8334C26.9998 9.05505 24.4691 11.6666 21.3475 11.6666C18.226 11.6666 15.6953 9.05505 15.6953 5.8334C15.6953 2.61176 18.226 0 21.3475 0C24.4691 0 26.9998 2.61176 26.9998 5.8334Z" fill="#FF1744"/>
</g>
</g>
</svg>
