<svg width="14" height="16" viewBox="0 0 14 16" fill="none" xmlns="http://www.w3.org/2000/svg">
<g id="Group 3395">
<g id="Group 3214">
<g id="Group">
<path id="Vector" d="M3.24437 10.2914C3.24437 10.0256 3.05907 9.86719 2.73214 9.86719C2.59864 9.86719 2.50823 9.8803 2.46094 9.89284V10.7454C2.51693 10.7579 2.58577 10.7621 2.68065 10.7621C3.02913 10.7621 3.24437 10.5869 3.24437 10.2914Z" fill="#FF1744"/>
<path id="Vector_2" d="M5.26573 9.88281C5.11933 9.88281 5.02471 9.89539 4.96875 9.90843V11.7966C5.02475 11.8096 5.11516 11.8096 5.1969 11.8096C5.79083 11.8138 6.1782 11.4885 6.1782 10.7992C6.1824 10.1997 5.82942 9.88281 5.26573 9.88281Z" fill="#FF1744"/>
<path id="Vector_3" d="M9.02631 0H2.56814C1.62466 0 0.856768 0.764626 0.856768 1.70291V7.99998H0.689617C0.308823 7.99998 0 8.30698 0 8.68622V12.8478C0 13.227 0.30879 13.534 0.689617 13.534H0.856768V14.2971C0.856768 15.2364 1.62466 16 2.56814 16H11.38C12.3229 16 13.0909 15.2364 13.0909 14.2971V4.03034L9.02631 0ZM1.80915 9.43724C2.01125 9.40326 2.29533 9.37764 2.69557 9.37764C3.10004 9.37764 3.38832 9.45447 3.58202 9.60878C3.76705 9.7542 3.89191 9.99423 3.89191 10.2767C3.89191 10.5591 3.79729 10.7992 3.62514 10.9619C3.40123 11.1716 3.07009 11.2657 2.68273 11.2657C2.59652 11.2657 2.51924 11.2615 2.45881 11.2532V12.2851H1.80915V9.43724ZM11.38 14.9571H2.56814C2.20282 14.9571 1.90533 14.6611 1.90533 14.2971V13.534H10.1198C10.5007 13.534 10.8095 13.227 10.8095 12.8478V8.68622C10.8095 8.30698 10.5007 7.99998 10.1198 7.99998H1.90533V1.70291C1.90533 1.33993 2.20285 1.04391 2.56814 1.04391L8.63421 1.03761V3.26877C8.63421 3.92046 9.16562 4.44974 9.82105 4.44974L12.0176 4.44347L12.0423 14.2971C12.0423 14.6611 11.7453 14.9571 11.38 14.9571ZM4.31082 12.272V9.43724C4.55178 9.39908 4.86584 9.37764 5.19727 9.37764C5.74808 9.37764 6.10526 9.47597 6.38514 9.68567C6.68633 9.90848 6.87552 10.2636 6.87552 10.7735C6.87552 11.3258 6.67342 11.7071 6.39351 11.9424C6.08812 12.1951 5.62325 12.3149 5.05533 12.3149C4.71523 12.3149 4.47427 12.2934 4.31082 12.272ZM9.00744 10.5937V11.1245H7.96591V12.2851H7.30757V9.39908H9.08047V9.9341H7.96591V10.5937H9.00744Z" fill="#FF1744"/>
</g>
<rect id="Rectangle 2396" x="0.507812" y="8.5" width="9.56643" height="4.5" fill="#FF1744"/>
<g id="PDF">
<path id="Vector_4" d="M6.98438 12.0628V9.29688H8.8194V9.77059H7.56143V10.443H8.70015V10.9167H7.56143V12.0628H6.98438Z" fill="white"/>
<path id="Vector_5" d="M5.20755 12.0628H4.22656V9.29688H5.21909C6.05774 9.29688 6.5694 9.81644 6.5694 10.676C6.5694 11.5432 6.05774 12.0628 5.20755 12.0628ZM4.80362 11.57H5.18447C5.71536 11.57 5.99234 11.2949 5.99234 10.676C5.99234 10.0609 5.71536 9.78969 5.18832 9.78969H4.80362V11.57Z" fill="white"/>
<path id="Vector_6" d="M1.77344 12.0628V9.29688H2.86599C3.50075 9.29688 3.86237 9.68273 3.86237 10.229C3.86237 10.783 3.49305 11.1612 2.8506 11.1612H2.35049V12.0628H1.77344ZM2.35049 10.6989H2.75827C3.10066 10.6989 3.26608 10.5079 3.26608 10.229C3.26608 9.95397 3.10066 9.76677 2.75827 9.76677H2.35049V10.6989Z" fill="white"/>
</g>
</g>
</g>
</svg>
