<svg width="52" height="52" viewBox="0 0 52 52" fill="none" xmlns="http://www.w3.org/2000/svg">
<g id="Group 2264">
<g id="Group 2122">
<g id="Group 1574">
<g id="Group">
<path id="Vector" d="M27.0494 21.927V18.4054C27.0494 18.1818 26.8696 18 26.6486 18H6.42143C6.2004 18 6.02063 18.1818 6.02063 18.4054V21.927C6.02063 22.1506 6.2004 22.3324 6.42143 22.3324H9.10915C9.33018 22.3324 9.50995 22.5142 9.50995 22.7378V30.3192C9.50995 30.4831 9.38323 30.6187 9.21967 30.6277L6.29029 30.8676C6.1282 30.8766 6 31.0107 6 31.1761V34.6829C6 34.8617 6.14883 35.0033 6.32565 34.9914L26.7223 33.1493C26.8829 33.1389 27.0067 33.0033 27.0067 32.8408V29.4697C27.0067 29.2342 26.8092 29.0479 26.5764 29.0658L24.6888 29.2372C24.456 29.2551 24.2585 29.0688 24.2585 28.8333V22.7408C24.2585 22.5172 24.4383 22.3354 24.6593 22.3354H26.6471C26.8682 22.3354 27.0479 22.1536 27.0479 21.93L27.0494 21.927ZM19.7068 29.6858L14.1457 30.191C13.9703 30.1999 13.8245 30.0598 13.8245 29.8825V22.7363C13.8245 22.5128 14.0042 22.3309 14.2253 22.3309H19.5963C19.8173 22.3309 19.9971 22.5128 19.9971 22.7363V29.3773C19.9971 29.5412 19.8704 29.6768 19.7083 29.6858H19.7068Z" fill="url(#paint0_linear_908_12021)"/>
<g id="Clip path group">
<mask id="mask0_908_12021" style="mask-type:luminance" maskUnits="userSpaceOnUse" x="6" y="18" width="22" height="17">
<g id="clippath">
<path id="Vector_2" d="M27.0572 21.9349V18.4132C27.0572 18.1896 26.8774 18.0078 26.6564 18.0078H6.42924C6.20821 18.0078 6.02844 18.1896 6.02844 18.4132V21.9349C6.02844 22.1584 6.20821 22.3402 6.42924 22.3402H9.11696C9.33799 22.3402 9.51777 22.5221 9.51777 22.7456V30.327C9.51777 30.4909 9.39104 30.6265 9.22748 30.6355L6.2981 30.8754C6.13601 30.8844 6.00781 31.0185 6.00781 31.1839V34.6907C6.00781 34.8695 6.15664 35.0111 6.33346 34.9992L26.7301 33.1571C26.8907 33.1467 27.0145 33.0111 27.0145 32.8486V29.4775C27.0145 29.242 26.817 29.0557 26.5842 29.0736L24.6966 29.245C24.4638 29.2629 24.2663 29.0766 24.2663 28.8411V22.7486C24.2663 22.525 24.4461 22.3432 24.6671 22.3432H26.6549C26.876 22.3432 27.0557 22.1614 27.0557 21.9378L27.0572 21.9349ZM19.7146 29.6936L14.1535 30.1988C13.9781 30.2077 13.8323 30.0677 13.8323 29.8903V22.7441C13.8323 22.5206 14.012 22.3387 14.2331 22.3387H19.6041C19.8251 22.3387 20.0049 22.5206 20.0049 22.7441V29.3851C20.0049 29.549 19.8782 29.6846 19.7161 29.6936H19.7146Z" fill="white"/>
</g>
</mask>
<g mask="url(#mask0_908_12021)">
<g id="Group_2">
<path id="Vector_3" d="M49.0257 31.1559V17.6788C49.0257 15.8322 47.6582 14.3359 45.971 14.3359H5.82026C4.13306 14.3359 2.76562 15.8322 2.76562 17.6788V35.5346C2.76562 37.5122 4.32462 39.0562 6.12233 38.861L46.2746 34.4809C47.8365 34.311 49.0257 32.8728 49.0257 31.1544V31.1559Z" fill="url(#paint1_linear_908_12021)"/>
</g>
</g>
</g>
</g>
<g id="Group_3">
<path id="Vector_4" d="M45.9845 27.8124C45.9845 27.574 45.7826 27.3877 45.5483 27.4085L43.8611 27.559C43.6814 27.5784 43.5252 27.4354 43.5252 27.252V22.632C43.5252 22.4651 43.6549 22.3294 43.8199 22.3235L45.7016 22.3309C45.8681 22.325 45.9992 22.1849 45.9963 22.018L45.9992 18.3979C45.9948 18.1774 45.8165 18 45.5984 18H28.585C28.364 18 28.1842 18.1818 28.1842 18.4054V21.933C28.1842 22.1566 28.364 22.3384 28.585 22.3384H30.3047C30.5257 22.3384 30.7055 22.5202 30.7055 22.7438V28.3549C30.7055 28.5635 30.5493 28.7379 30.343 28.7588L28.5187 28.9227C28.3139 28.9421 28.1562 29.1179 28.1562 29.3266V32.7052C28.1562 32.89 28.3154 33.0331 28.4952 33.0122L45.6191 31.5219C45.8268 31.504 45.986 31.3281 45.986 31.118V27.8124H45.9845ZM38.9602 28.0643L35.2881 28.3638C35.1084 28.3832 34.9507 28.2401 34.9507 28.0568V22.7378C34.9507 22.5142 35.1305 22.3324 35.3515 22.3324H38.832C39.053 22.3324 39.2328 22.5142 39.2328 22.7378V27.7558C39.2328 27.9138 39.1149 28.0464 38.9602 28.0628V28.0643Z" fill="url(#paint2_linear_908_12021)"/>
<g id="Clip path group_2">
<mask id="mask1_908_12021" style="mask-type:luminance" maskUnits="userSpaceOnUse" x="28" y="18" width="18" height="16">
<g id="clippath-1">
<path id="Vector_5" d="M45.9689 27.8202C45.9689 27.5818 45.767 27.3955 45.5327 27.4163L43.8455 27.5669C43.6658 27.5862 43.5096 27.4432 43.5096 27.2599V22.6398C43.5096 22.4729 43.6392 22.3373 43.8043 22.3313L45.686 22.3387C45.8525 22.3328 45.9836 22.1927 45.9807 22.0258L45.9836 18.4057C45.9792 18.1852 45.8009 18.0078 45.5828 18.0078H28.5694C28.3484 18.0078 28.1686 18.1896 28.1686 18.4132V21.9408C28.1686 22.1644 28.3484 22.3462 28.5694 22.3462H30.289C30.5101 22.3462 30.6898 22.528 30.6898 22.7516V28.3627C30.6898 28.5714 30.5336 28.7457 30.3273 28.7666L28.5031 28.9305C28.2983 28.9499 28.1406 29.1258 28.1406 29.3344V32.713C28.1406 32.8978 28.2998 33.0409 28.4795 33.02L45.6034 31.5297C45.8112 31.5118 45.9704 31.3359 45.9704 31.1258V27.8202H45.9689ZM38.9446 28.0721L35.2725 28.3716C35.0927 28.391 34.9351 28.2479 34.9351 28.0646V22.7456C34.9351 22.5221 35.1149 22.3402 35.3359 22.3402H38.8164C39.0374 22.3402 39.2172 22.5221 39.2172 22.7456V27.7636C39.2172 27.9216 39.0993 28.0542 38.9446 28.0706V28.0721Z" fill="white"/>
</g>
</mask>
<g mask="url(#mask1_908_12021)">
<g id="Group_4">
<path id="Vector_6" d="M49.0179 31.1559V17.6788C49.0179 15.8322 47.6504 14.3359 45.9632 14.3359H5.81244C4.12525 14.3359 2.75781 15.8322 2.75781 17.6788V35.5346C2.75781 37.5122 4.31681 39.0562 6.11452 38.861L46.2668 34.4809C47.8287 34.311 49.0179 32.8728 49.0179 31.1544V31.1559Z" fill="url(#paint3_linear_908_12021)"/>
</g>
</g>
</g>
</g>
</g>
</g>
</g>
<defs>
<linearGradient id="paint0_linear_908_12021" x1="6.00295" y1="26.4949" x2="27.0494" y2="26.4949" gradientUnits="userSpaceOnUse">
<stop stop-color="#FF009C"/>
<stop offset="1" stop-color="#FF5000"/>
</linearGradient>
<linearGradient id="paint1_linear_908_12021" x1="2.76562" y1="26.6074" x2="49.0257" y2="26.6074" gradientUnits="userSpaceOnUse">
<stop stop-color="#FF009C"/>
<stop offset="1" stop-color="#FF5000"/>
</linearGradient>
<linearGradient id="paint2_linear_908_12021" x1="28.1548" y1="25.5068" x2="45.9978" y2="25.5068" gradientUnits="userSpaceOnUse">
<stop stop-color="#FF009C"/>
<stop offset="1" stop-color="#FF5000"/>
</linearGradient>
<linearGradient id="paint3_linear_908_12021" x1="2.75781" y1="26.6074" x2="49.0179" y2="26.6074" gradientUnits="userSpaceOnUse">
<stop stop-color="#FF009C"/>
<stop offset="1" stop-color="#FF5000"/>
</linearGradient>
</defs>
</svg>
