<svg width="28" height="28" viewBox="0 0 28 28" fill="none" xmlns="http://www.w3.org/2000/svg">
<g id="Group 2130">
<path id="&#236;&#138;&#164;&#237;&#129;&#172;&#235;&#166;&#176;&#236;&#131;&#183; 2022-06-30 &#236;&#152;&#164;&#237;&#155;&#132; 4.17.52" d="M14 28C21.732 28 28 21.732 28 14C28 6.26801 21.732 0 14 0C6.26801 0 0 6.26801 0 14C0 21.732 6.26801 28 14 28Z" fill="url(#paint0_linear_908_12040)"/>
<g id="Group 1574">
<g id="Group">
<path id="Vector" d="M14.5136 11.9337V10.2416C14.5136 10.1342 14.4256 10.0469 14.3173 10.0469H4.40955C4.30129 10.0469 4.21323 10.1342 4.21323 10.2416V11.9337C4.21323 12.0411 4.30129 12.1285 4.40955 12.1285H5.72606C5.83433 12.1285 5.92238 12.2158 5.92238 12.3232V15.9659C5.92238 16.0446 5.86031 16.1098 5.78019 16.1141L4.34531 16.2294C4.26592 16.2337 4.20312 16.2981 4.20312 16.3776V18.0625C4.20312 18.1484 4.27602 18.2165 4.36264 18.2107L14.3534 17.3257C14.4321 17.3207 14.4927 17.2555 14.4927 17.1775V15.5577C14.4927 15.4446 14.396 15.3551 14.2819 15.3637L13.3573 15.446C13.2433 15.4546 13.1466 15.3651 13.1466 15.252V12.3247C13.1466 12.2173 13.2346 12.1299 13.3429 12.1299H14.3166C14.4248 12.1299 14.5129 12.0425 14.5129 11.9351L14.5136 11.9337ZM10.917 15.6615L8.19307 15.9043C8.10718 15.9086 8.03573 15.8413 8.03573 15.7561V12.3225C8.03573 12.2151 8.12378 12.1278 8.23205 12.1278H10.8629C10.9712 12.1278 11.0592 12.2151 11.0592 12.3225V15.5133C11.0592 15.5921 10.9972 15.6572 10.9178 15.6615H10.917Z" fill="white"/>
<g id="Clip path group">
<mask id="mask0_908_12040" style="mask-type:luminance" maskUnits="userSpaceOnUse" x="4" y="10" width="11" height="9">
<g id="clippath">
<path id="Vector_2" d="M14.5214 11.9415V10.2495C14.5214 10.142 14.4334 10.0547 14.3251 10.0547H4.41736C4.3091 10.0547 4.22104 10.142 4.22104 10.2495V11.9415C4.22104 12.0489 4.3091 12.1363 4.41736 12.1363H5.73387C5.84214 12.1363 5.9302 12.2236 5.9302 12.3311V15.9737C5.9302 16.0525 5.86812 16.1176 5.78801 16.1219L4.35313 16.2372C4.27373 16.2415 4.21094 16.3059 4.21094 16.3854V18.0703C4.21094 18.1563 4.28384 18.2243 4.37045 18.2185L14.3612 17.3335C14.4399 17.3285 14.5005 17.2633 14.5005 17.1853V15.5655C14.5005 15.4524 14.4038 15.3629 14.2897 15.3715L13.3652 15.4538C13.2511 15.4624 13.1544 15.3729 13.1544 15.2598V12.3325C13.1544 12.2251 13.2425 12.1377 13.3507 12.1377H14.3244C14.4327 12.1377 14.5207 12.0504 14.5207 11.943L14.5214 11.9415ZM10.9248 15.6694L8.20089 15.9121C8.115 15.9164 8.04354 15.8491 8.04354 15.7639V12.3303C8.04354 12.2229 8.1316 12.1356 8.23986 12.1356H10.8707C10.979 12.1356 11.067 12.2229 11.067 12.3303V15.5211C11.067 15.5999 11.005 15.6651 10.9256 15.6694H10.9248Z" fill="white"/>
</g>
</mask>
<g mask="url(#mask0_908_12040)">
<g id="Group_2">
<path id="Vector_3" d="M25.2921 16.3706V9.8952C25.2921 9.00799 24.6223 8.28906 23.7958 8.28906H4.12904C3.30262 8.28906 2.63281 9.00799 2.63281 9.8952V18.4744C2.63281 19.4246 3.39645 20.1664 4.27701 20.0726L23.9445 17.9681C24.7096 17.8865 25.2921 17.1955 25.2921 16.3699V16.3706Z" fill="white"/>
</g>
</g>
</g>
</g>
<g id="Group_3">
<path id="Vector_4" d="M23.803 14.7614C23.803 14.6469 23.7041 14.5574 23.5894 14.5674L22.7629 14.6397C22.6749 14.649 22.5984 14.5803 22.5984 14.4922V12.2724C22.5984 12.1922 22.6619 12.127 22.7427 12.1242L23.6644 12.1278C23.746 12.1249 23.8102 12.0576 23.8088 11.9774L23.8102 10.2381C23.8081 10.1321 23.7207 10.0469 23.6139 10.0469H15.2803C15.1721 10.0469 15.084 10.1342 15.084 10.2416V11.9366C15.084 12.044 15.1721 12.1313 15.2803 12.1313H16.1227C16.2309 12.1313 16.319 12.2187 16.319 12.3261V15.0221C16.319 15.1223 16.2425 15.2061 16.1414 15.2162L15.2479 15.2949C15.1475 15.3042 15.0703 15.3887 15.0703 15.489V17.1123C15.0703 17.2011 15.1483 17.2698 15.2363 17.2598L23.624 16.5437C23.7258 16.5351 23.8037 16.4506 23.8037 16.3497V14.7614H23.803ZM20.3623 14.8825L18.5637 15.0264C18.4756 15.0357 18.3984 14.967 18.3984 14.8789V12.3232C18.3984 12.2158 18.4865 12.1285 18.5947 12.1285H20.2995C20.4078 12.1285 20.4959 12.2158 20.4959 12.3232V14.7342C20.4959 14.8101 20.4381 14.8739 20.3623 14.8817V14.8825Z" fill="white"/>
<g id="Clip path group_2">
<mask id="mask1_908_12040" style="mask-type:luminance" maskUnits="userSpaceOnUse" x="15" y="10" width="9" height="8">
<g id="clippath-1">
<path id="Vector_5" d="M23.8186 14.7693C23.8186 14.6547 23.7198 14.5652 23.605 14.5752L22.7786 14.6475C22.6905 14.6568 22.614 14.5881 22.614 14.5V12.2802C22.614 12.2 22.6775 12.1349 22.7584 12.132L23.6801 12.1356C23.7616 12.1327 23.8259 12.0654 23.8244 11.9852L23.8259 10.2459C23.8237 10.1399 23.7364 10.0547 23.6295 10.0547H15.296C15.1877 10.0547 15.0997 10.142 15.0997 10.2495V11.9444C15.0997 12.0518 15.1877 12.1392 15.296 12.1392H16.1383C16.2465 12.1392 16.3346 12.2265 16.3346 12.3339V15.0299C16.3346 15.1302 16.2581 15.2139 16.157 15.224L15.2635 15.3027C15.1632 15.312 15.0859 15.3965 15.0859 15.4968V17.1201C15.0859 17.2089 15.1639 17.2776 15.2519 17.2676L23.6396 16.5515C23.7414 16.543 23.8194 16.4585 23.8194 16.3575V14.7693H23.8186ZM20.378 14.8903L18.5793 15.0342C18.4913 15.0435 18.414 14.9748 18.414 14.8867V12.3311C18.414 12.2236 18.5021 12.1363 18.6103 12.1363H20.3152C20.4234 12.1363 20.5115 12.2236 20.5115 12.3311V14.7421C20.5115 14.818 20.4537 14.8817 20.378 14.8896V14.8903Z" fill="white"/>
</g>
</mask>
<g mask="url(#mask1_908_12040)">
<g id="Group_4">
<path id="Vector_6" d="M25.3077 16.3706V9.8952C25.3077 9.00799 24.6379 8.28906 23.8115 8.28906H4.14467C3.31824 8.28906 2.64844 9.00799 2.64844 9.8952V18.4744C2.64844 19.4246 3.41207 20.1664 4.29263 20.0726L23.9602 17.9681C24.7252 17.8865 25.3077 17.1955 25.3077 16.3699V16.3706Z" fill="white"/>
</g>
</g>
</g>
</g>
</g>
</g>
<defs>
<linearGradient id="paint0_linear_908_12040" x1="0" y1="0" x2="28" y2="28" gradientUnits="userSpaceOnUse">
<stop stop-color="#666666"/>
<stop offset="1" stop-color="white"/>
</linearGradient>
</defs>
</svg>
