<svg width="24" height="24" viewBox="0 0 24 24" fill="none" xmlns="http://www.w3.org/2000/svg">
<g id="Group 3253">
<rect id="Rectangle 2102" opacity="0.22" width="24" height="24" rx="4" fill="white"/>
<g id="Group 2867">
<path id="Vector" d="M11.3307 5.71891L11.326 16.0109C11.326 16.1877 11.3963 16.3573 11.5213 16.4823C11.6463 16.6073 11.8159 16.6776 11.9927 16.6776C12.1695 16.6776 12.3391 16.6073 12.4641 16.4823C12.5891 16.3573 12.6594 16.1877 12.6594 16.0109L12.664 5.73024L14.6054 7.67224C14.7304 7.79722 14.8999 7.86743 15.0767 7.86743C15.2535 7.86743 15.423 7.79722 15.548 7.67224C15.673 7.54722 15.7432 7.37768 15.7432 7.20091C15.7432 7.02413 15.673 6.85459 15.548 6.72957L13.4074 4.58624C13.2216 4.40039 13.0011 4.25295 12.7584 4.15236C12.5156 4.05177 12.2555 4 11.9927 4C11.73 4 11.4698 4.05177 11.227 4.15236C10.9843 4.25295 10.7638 4.40039 10.578 4.58624L8.43738 6.72757C8.3124 6.85259 8.24219 7.02213 8.24219 7.19891C8.24219 7.37568 8.3124 7.54522 8.43738 7.67024C8.5624 7.79522 8.73194 7.86543 8.90871 7.86543C9.08549 7.86543 9.25503 7.79522 9.38005 7.67024L11.3307 5.71891Z" fill="#AAAAAA"/>
<path id="Vector_2" d="M18.6667 15.3307V17.9974C18.6667 18.1742 18.5964 18.3438 18.4714 18.4688C18.3464 18.5938 18.1768 18.6641 18 18.6641H6C5.82319 18.6641 5.65362 18.5938 5.5286 18.4688C5.40357 18.3438 5.33333 18.1742 5.33333 17.9974V15.3307C5.33333 15.1539 5.2631 14.9843 5.13807 14.8593C5.01305 14.7343 4.84348 14.6641 4.66667 14.6641C4.48986 14.6641 4.32029 14.7343 4.19526 14.8593C4.07024 14.9843 4 15.1539 4 15.3307V17.9974C4 18.5278 4.21071 19.0365 4.58579 19.4116C4.96086 19.7867 5.46957 19.9974 6 19.9974H18C18.5304 19.9974 19.0391 19.7867 19.4142 19.4116C19.7893 19.0365 20 18.5278 20 17.9974V15.3307C20 15.1539 19.9298 14.9843 19.8047 14.8593C19.6797 14.7343 19.5101 14.6641 19.3333 14.6641C19.1565 14.6641 18.987 14.7343 18.8619 14.8593C18.7369 14.9843 18.6667 15.1539 18.6667 15.3307Z" fill="#AAAAAA"/>
</g>
</g>
</svg>
