<svg width="22" height="16" viewBox="0 0 22 16" fill="none" xmlns="http://www.w3.org/2000/svg">
<g id="Group 3393">
<g id="Group 3259">
<path id="Vector" d="M21.1492 2.49936C21.0262 2.01538 20.7852 1.57402 20.4501 1.21945C20.115 0.864885 19.6977 0.609542 19.2399 0.478981C17.5548 9.71897e-08 10.8 0 10.8 0C10.8 0 4.04518 -9.71897e-08 2.36009 0.476433C1.9021 0.606571 1.48458 0.861772 1.14944 1.21641C0.814308 1.57104 0.573362 2.01263 0.450804 2.49682C-9.19615e-08 4.28025 0 8 0 8C0 8 -9.19615e-08 11.7197 0.450804 13.5006C0.699107 14.4841 1.43196 15.2586 2.36009 15.521C4.04518 16 10.8 16 10.8 16C10.8 16 17.5548 16 19.2399 15.521C20.1704 15.2586 20.9009 14.4841 21.1492 13.5006C21.6 11.7197 21.6 8 21.6 8C21.6 8 21.6 4.28025 21.1492 2.49936ZM8.65446 11.414V4.58599L14.2473 7.97452L8.65446 11.414Z" fill="#DDDDDD"/>
</g>
</g>
</svg>
